<svg width="163" height="33" viewBox="0 0 163 33" fill="none" xmlns="http://www.w3.org/2000/svg">
<g clip-path="url(#clip0)">
<path fill-rule="evenodd" clip-rule="evenodd" d="M66.3131 21.1018V18.5065H75.2074V15.5243H66.3131V13.3726C66.3131 13.1555 66.3131 12.9856 66.5821 12.9856H75.4114V9.88074H65.0796C63.8461 9.88074 63.0392 10.7584 63.0392 12.2684V22.1588C63.0392 23.6688 63.8461 24.5465 65.0796 24.5465H75.6247V21.4416H66.5821C66.3409 21.4416 66.3131 21.3189 66.3131 21.1018Z" fill="white"/>
<path fill-rule="evenodd" clip-rule="evenodd" d="M91.0946 12.9856V9.88074H80.772C79.5385 9.88074 78.7316 10.7584 78.7316 12.2684V24.537H82.0983V13.3726C82.0983 13.1838 82.0983 12.9856 82.3487 12.9856H91.0946Z" fill="white"/>
<path fill-rule="evenodd" clip-rule="evenodd" d="M121.126 7.59699C120.755 7.59699 120.365 7.5498 119.948 7.5498H113.4C112.982 7.5498 112.593 7.5498 112.222 7.59699C107.779 7.94618 106.036 10.3716 106.036 15.0903C106.036 19.809 107.891 22.2155 112.222 22.6402C112.611 22.6402 113.01 22.6402 113.446 22.6402H115.004V24.5277H118.371V22.6497H119.938C120.356 22.6497 120.773 22.6497 121.144 22.6497C125.494 22.2627 127.33 19.8184 127.33 15.0997C127.33 10.381 125.651 7.95561 121.144 7.60643L121.126 7.59699ZM115.004 19.5919H113.418C113.024 19.5949 112.63 19.5665 112.24 19.507C110.107 19.1578 109.458 17.7139 109.458 15.1469C109.458 12.5799 110.07 11.07 112.24 10.7113C112.649 10.6516 113.061 10.6232 113.474 10.6264H115.004V19.5919ZM121.144 19.507C120.754 19.5671 120.36 19.5955 119.966 19.5919H118.371V10.6264H119.911C120.323 10.6225 120.736 10.6509 121.144 10.7113C123.324 11.07 123.926 12.495 123.926 15.1469C123.926 17.7988 123.286 19.1578 121.144 19.507Z" fill="white"/>
<path fill-rule="evenodd" clip-rule="evenodd" d="M56.4355 7.20081C54.8125 7.20081 53.7738 8.14455 52.9947 9.9754L48.4594 21.0077L43.8222 9.9754C43.0617 8.08792 41.9673 7.20081 40.3813 7.20081C38.48 7.20081 37.2744 8.35217 37.2744 10.872V24.5373H40.808V11.325L45.4452 22.4139C46.0759 23.9428 47.0404 24.7733 48.3945 24.7733C49.7486 24.7733 50.7503 23.9428 51.3809 22.4139L56.0182 11.2117V24.5373H59.5425V10.872C59.5425 8.35217 58.3647 7.20081 56.4355 7.20081Z" fill="white"/>
<path fill-rule="evenodd" clip-rule="evenodd" d="M138.784 9.67358H137.569C132.292 9.67358 130.205 12.0707 130.205 17.2235C130.205 22.3763 132.339 24.7734 137.625 24.7734H138.775C143.987 24.7734 146.195 22.2536 146.195 17.2235C146.195 12.1934 144.154 9.67358 138.775 9.67358H138.784ZM138.784 21.7063H137.569C134.555 21.7063 133.581 20.2435 133.581 17.2329C133.581 14.2224 134.435 12.7219 137.625 12.7219H138.729C141.919 12.7219 142.754 14.1847 142.754 17.2329C142.754 20.2812 141.826 21.7063 138.784 21.7063Z" fill="white"/>
<path fill-rule="evenodd" clip-rule="evenodd" d="M97.3827 9.51268C96.7717 9.50313 96.1734 9.69066 95.6736 10.0484C95.1738 10.4061 94.7981 10.9156 94.6003 11.504L89.9631 21.8946L88.7852 24.537H92.495L93.7935 21.3755H100.898L102.243 24.537H105.85L100.165 11.5889C99.9647 10.9954 99.5908 10.4784 99.0935 10.1073C98.5962 9.73618 97.9992 9.5287 97.3827 9.51268ZM94.9435 18.4216L97.0581 13.2121C97.1879 12.9007 97.4755 12.9101 97.5867 13.2121L99.7663 18.4499L94.9435 18.4216Z" fill="white"/>
<path fill-rule="evenodd" clip-rule="evenodd" d="M159.652 9.88074V15.4299H152.297V9.88074H148.958V24.5182H152.297V18.5915H159.652V24.5182H163V9.88074H159.652Z" fill="white"/>
<path fill-rule="evenodd" clip-rule="evenodd" d="M15.7669 4.10224e-05C11.8209 -0.00903395 8.01496 1.48786 5.10077 4.19512C2.18657 6.90237 0.37595 10.6232 0.0264683 14.6227C-0.323013 18.6222 0.814056 22.6097 3.21312 25.7977C5.61219 28.9856 9.09883 31.1423 12.9845 31.8419V17.6857C12.9845 17.5271 13.0152 17.37 13.0749 17.2235C13.1345 17.0769 13.222 16.9437 13.3322 16.8316C13.4424 16.7194 13.5733 16.6304 13.7173 16.5697C13.8614 16.509 14.0157 16.4778 14.1716 16.4778H16.2677C16.2823 16.4778 16.2968 16.4748 16.3103 16.4691C16.3238 16.4634 16.3361 16.4551 16.3464 16.4446C16.3567 16.4341 16.3649 16.4216 16.3705 16.4078C16.3761 16.3941 16.379 16.3794 16.379 16.3645V4.10224e-05H15.7669ZM12.7434 13.7692C12.3765 13.7692 12.0179 13.6585 11.7128 13.4511C11.4078 13.2437 11.17 12.9489 11.0296 12.604C10.8893 12.2592 10.8525 11.8796 10.9241 11.5135C10.9957 11.1474 11.1723 10.8111 11.4317 10.5471C11.6912 10.2831 12.0217 10.1034 12.3815 10.0305C12.7413 9.95769 13.1143 9.99507 13.4532 10.1379C13.7921 10.2808 14.0818 10.5227 14.2857 10.8331C14.4895 11.1435 14.5983 11.5084 14.5983 11.8817C14.5983 12.3823 14.4028 12.8624 14.055 13.2164C13.7071 13.5704 13.2353 13.7692 12.7434 13.7692Z" fill="white"/>
<path fill-rule="evenodd" clip-rule="evenodd" d="M18.2246 0.198364V17.1857C18.2258 17.3439 18.1962 17.5008 18.1376 17.6473C18.079 17.7938 17.9924 17.927 17.8829 18.0393C17.7734 18.1516 17.6431 18.2407 17.4996 18.3016C17.3561 18.3624 17.2022 18.3937 17.0467 18.3937H14.9414C14.9268 18.3937 14.9123 18.3966 14.8988 18.4023C14.8853 18.408 14.873 18.4163 14.8627 18.4269C14.8524 18.4374 14.8442 18.4499 14.8386 18.4636C14.833 18.4773 14.8301 18.4921 14.8301 18.5069V32.0874C15.1454 32.0874 15.4608 32.0874 15.7576 32.0874C19.7244 32.0865 23.545 30.5641 26.4577 27.8238C29.3703 25.0836 31.1608 21.3269 31.4721 17.3029C31.7834 13.2789 30.5927 9.28331 28.1373 6.11307C25.6819 2.94282 22.1424 0.830855 18.2246 0.198364ZM18.1318 24.2921C17.8016 24.2919 17.4788 24.1916 17.2049 24.0038C16.931 23.816 16.7183 23.5493 16.5941 23.2379C16.47 22.9264 16.4399 22.5844 16.5078 22.2555C16.5757 21.9266 16.7385 21.6257 16.9753 21.3915C17.2122 21.1572 17.5123 21.0001 17.8373 20.9404C18.1624 20.8806 18.4975 20.9209 18.7999 21.056C19.1024 21.1911 19.3583 21.415 19.535 21.6989C19.7117 21.9829 19.8012 22.314 19.792 22.65C19.792 23.098 19.6171 23.5277 19.3057 23.8445C18.9944 24.1613 18.5721 24.3393 18.1318 24.3393V24.2921ZM22.528 24.2921C22.1977 24.2919 21.8749 24.1916 21.601 24.0038C21.3271 23.816 21.1144 23.5493 20.9903 23.2379C20.8661 22.9264 20.836 22.5844 20.9039 22.2555C20.9719 21.9266 21.1346 21.6257 21.3715 21.3915C21.6083 21.1572 21.9084 21.0001 22.2335 20.9404C22.5585 20.8806 22.8937 20.9209 23.1961 21.056C23.4985 21.1911 23.7544 21.415 23.9312 21.6989C24.1079 21.9829 24.1973 22.314 24.1881 22.65C24.1857 23.0972 24.01 23.5255 23.6992 23.8417C23.3884 24.158 22.9675 24.3368 22.528 24.3393V24.2921ZM26.9241 24.2921C26.5938 24.2919 26.2711 24.1916 25.9971 24.0038C25.7232 23.816 25.5106 23.5493 25.3864 23.2379C25.2622 22.9264 25.2322 22.5844 25.3001 22.2555C25.368 21.9266 25.5308 21.6257 25.7676 21.3915C26.0044 21.1572 26.3046 21.0001 26.6296 20.9404C26.9546 20.8806 27.2898 20.9209 27.5922 21.056C27.8946 21.1911 28.1506 21.415 28.3273 21.6989C28.504 21.9829 28.5935 22.314 28.5842 22.65C28.5697 23.0939 28.3849 23.5144 28.0694 23.8213C27.7539 24.1283 27.3328 24.2972 26.8963 24.2921H26.9241Z" fill="white"/>
</g>
<defs>
<clipPath id="clip0">
<rect width="163" height="32.1061" fill="white"/>
</clipPath>
</defs>
</svg>
