<svg width="66" height="66" viewBox="0 0 66 66" fill="none" xmlns="http://www.w3.org/2000/svg">
<path d="M28.4271 8.68943C22.8155 9.7415 17.7414 12.7043 14.0671 17.0743L28.4271 8.68943Z" fill="white"/>
<path d="M28.4271 8.68943C22.8155 9.7415 17.7414 12.7043 14.0671 17.0743" stroke="white" stroke-width="3" stroke-linecap="round" stroke-linejoin="round"/>
<path d="M9.60625 24.9749C7.75292 30.2983 7.80035 36.0993 9.74047 41.3918L9.60625 24.9749Z" fill="white"/>
<path d="M9.60625 24.9749C7.75292 30.2983 7.80035 36.0993 9.74047 41.3918" stroke="white" stroke-width="3" stroke-linecap="round" stroke-linejoin="round"/>
<path d="M14.3325 49.217C17.9829 53.4282 22.9506 56.2806 28.4277 57.3105L14.3325 49.217Z" fill="white"/>
<path d="M14.3325 49.217C17.9829 53.4282 22.9506 56.2806 28.4277 57.3105" stroke="white" stroke-width="3" stroke-linecap="round" stroke-linejoin="round"/>
<path d="M37.5007 8.67839C43.1869 9.72586 48.3263 12.7325 52.0258 17.1758C55.7253 21.619 57.7511 27.2181 57.7511 32.9999C57.7511 38.7817 55.7253 44.3808 52.0258 48.8241C48.3263 53.2673 43.1869 56.274 37.5007 57.3214" stroke="white" stroke-width="3" stroke-linecap="round" stroke-linejoin="round"/>
<path d="M30.0871 24.9096L40.7626 31.2236C41.0711 31.406 41.3267 31.6656 41.5043 31.9769C41.6819 32.2881 41.7753 32.6403 41.7753 32.9987C41.7753 33.3571 41.6819 33.7093 41.5043 34.0205C41.3267 34.3318 41.0711 34.5914 40.7626 34.7738L30.0871 41.0878C29.7738 41.2731 29.417 41.3721 29.053 41.3749C28.689 41.3777 28.3308 41.2842 28.0146 41.1038C27.6985 40.9234 27.4357 40.6625 27.2529 40.3477C27.0702 40.0329 26.974 39.6753 26.9741 39.3113V26.6861C26.974 26.3221 27.0702 25.9645 27.2529 25.6497C27.4357 25.3349 27.6985 25.074 28.0146 24.8936C28.3308 24.7132 28.689 24.6197 29.053 24.6225C29.417 24.6253 29.7738 24.7243 30.0871 24.9096Z" fill="white" stroke="white" stroke-width="3" stroke-linecap="round" stroke-linejoin="round"/>
</svg>
