<svg width="375" height="47" viewBox="0 0 375 47" fill="none" xmlns="http://www.w3.org/2000/svg">
<rect x="31.5" y="19.5" width="3.5" height="11.5" rx="1" fill="white"/>
<path d="M26.5 23C26.5 22.4477 26.9477 22 27.5 22H29C29.5523 22 30 22.4477 30 23V30C30 30.5523 29.5523 31 29 31H27.5C26.9477 31 26.5 30.5523 26.5 30V23Z" fill="white"/>
<path d="M21.5 25.5C21.5 24.9477 21.9477 24.5 22.5 24.5H24C24.5523 24.5 25 24.9477 25 25.5V30C25 30.5523 24.5523 31 24 31H22.5C21.9477 31 21.5 30.5523 21.5 30V25.5Z" fill="white"/>
<path d="M16.5 27.5C16.5 26.9477 16.9477 26.5 17.5 26.5H19C19.5523 26.5 20 26.9477 20 27.5V30C20 30.5523 19.5523 31 19 31H17.5C16.9477 31 16.5 30.5523 16.5 30V27.5Z" fill="white"/>
<path d="M39.3906 30H41.2109V21.9844H41.3438L44.4688 30H45.8438L48.9688 21.9844H49.1094V30H50.9219V18.7266H48.6094L45.2266 27.3984H45.0938L41.7031 18.7266H39.3906V30ZM56.8363 30.1719C59.1566 30.1719 60.2972 28.8359 60.5706 27.7344L60.5941 27.6641H58.7425L58.7191 27.7188C58.5316 28.1094 57.93 28.6406 56.8753 28.6406C55.555 28.6406 54.7269 27.75 54.7034 26.2188H60.6722V25.5781C60.6722 23 59.1722 21.2969 56.7425 21.2969C54.3128 21.2969 52.7581 23.0547 52.7581 25.7422V25.75C52.7581 28.4688 54.2972 30.1719 56.8363 30.1719ZM56.7659 22.8203C57.8519 22.8203 58.6409 23.5156 58.7738 24.9141H54.7191C54.8675 23.5547 55.68 22.8203 56.7659 22.8203ZM65.9694 33C68.4616 33 70.0397 31.7578 70.0397 29.7891V21.4609H68.0944V22.8672H67.9928C67.5084 21.8984 66.5866 21.3203 65.4069 21.3203C63.2038 21.3203 61.86 23.0234 61.86 25.4922V25.5078C61.86 27.9297 63.2038 29.6016 65.3678 29.6016C66.5475 29.6016 67.4772 29.1016 67.9694 28.1875H68.1022V29.8203C68.1022 30.9141 67.3288 31.5312 66.0006 31.5312C64.9147 31.5312 64.2663 31.1484 64.1334 30.6016L64.1256 30.5781H62.1803L62.1725 30.6016C62.3678 32.0391 63.7194 33 65.9694 33ZM65.9694 28.0547C64.6178 28.0547 63.8522 27.0156 63.8522 25.5078V25.4922C63.8522 23.9844 64.6178 22.9375 65.9694 22.9375C67.3131 22.9375 68.1334 23.9844 68.1334 25.4922V25.5078C68.1334 27.0156 67.3209 28.0547 65.9694 28.0547ZM74.4306 30.1406C75.5556 30.1406 76.4619 29.6562 76.9306 28.8281H77.0634V30H78.9853V24.1641C78.9853 22.3594 77.7509 21.2969 75.5556 21.2969C73.5244 21.2969 72.1494 22.25 71.9619 23.6875L71.9541 23.7578H73.79L73.7978 23.7266C73.9931 23.1641 74.5713 22.8438 75.4619 22.8438C76.5088 22.8438 77.0634 23.3125 77.0634 24.1641V24.8984L74.8681 25.0312C72.79 25.1562 71.6259 26.0469 71.6259 27.5703V27.5859C71.6259 29.1406 72.8056 30.1406 74.4306 30.1406ZM73.5478 27.4922V27.4766C73.5478 26.7734 74.0556 26.375 75.1416 26.3047L77.0634 26.1797V26.8672C77.0634 27.8828 76.1963 28.6484 75.0244 28.6484C74.165 28.6484 73.5478 28.2188 73.5478 27.4922ZM81.2044 30H83.22V25.3984H87.9466V23.7578H83.22V20.4219H88.3919V18.7266H81.2044V30ZM93.7906 30.1719C96.3453 30.1719 97.9 28.5 97.9 25.7344V25.7188C97.9 22.9688 96.3375 21.2969 93.7906 21.2969C91.2516 21.2969 89.6813 22.9766 89.6813 25.7188V25.7344C89.6813 28.5 91.2281 30.1719 93.7906 30.1719ZM93.7906 28.5938C92.4391 28.5938 91.6656 27.5391 91.6656 25.7422V25.7266C91.6656 23.9297 92.4391 22.8672 93.7906 22.8672C95.1344 22.8672 95.9078 23.9297 95.9078 25.7266V25.7422C95.9078 27.5391 95.1422 28.5938 93.7906 28.5938ZM99.5331 30H101.478V25.0234C101.478 23.7422 102.197 22.9297 103.353 22.9297C104.533 22.9297 105.072 23.6016 105.072 24.9297V30H107.018V24.4766C107.018 22.4453 105.978 21.2969 104.072 21.2969C102.838 21.2969 102.018 21.8516 101.611 22.7656H101.478V21.4609H99.5331V30Z" fill="white"/>
<path d="M116.186 29.5H117.754V27.7417H118.985V26.3896H117.754V20.3403H115.437C114.193 22.2319 112.892 24.3394 111.705 26.4023V27.7417H116.186V29.5ZM113.228 26.4277V26.3325C114.117 24.7773 115.177 23.0825 116.116 21.6479H116.211V26.4277H113.228ZM123.611 29.7285C126.055 29.7285 127.616 28.2114 127.616 25.8438V24.7012H123.814V25.9517H126.01L126.004 26.1421C125.985 27.4434 125.033 28.313 123.636 28.313C122.005 28.313 120.976 27.0117 120.976 24.9106V24.8979C120.976 22.8286 121.986 21.5273 123.585 21.5273C124.76 21.5273 125.598 22.1113 125.896 23.1143L125.915 23.1777H127.54L127.534 23.1143C127.223 21.3242 125.699 20.1118 123.585 20.1118C120.976 20.1118 119.307 21.9844 119.307 24.9106V24.9233C119.307 27.8813 120.957 29.7285 123.611 29.7285Z" fill="white"/>
<g clip-path="url(#clip0)">
<path d="M333 21.75C333 21.0596 333.56 20.5 334.25 20.5H335V29H334.25C333.56 29 333 28.4404 333 27.75V21.75Z" fill="white"/>
<path d="M335 20.5H337V29H335V20.5Z" fill="white"/>
<path d="M337 20.5H339V29H337V20.5Z" fill="white"/>
<path d="M339 20.5H341V29H339V20.5Z" fill="white"/>
<path d="M341 20.5H343V29H341V20.5Z" fill="white"/>
<path d="M343 20.5H345V29H343V20.5Z" fill="white"/>
<path d="M345 20.5H347V29H345V20.5Z" fill="white"/>
<path d="M347 20.5H349V29H347V20.5Z" fill="white"/>
<path d="M349 20.5H351V29H349V20.5Z" fill="white"/>
</g>
<g opacity="0.5">
<path fill-rule="evenodd" clip-rule="evenodd" d="M331 21.5C331 19.8431 332.343 18.5 334 18.5H352C353.657 18.5 355 19.8431 355 21.5V28C355 29.6569 353.657 31 352 31H334C332.343 31 331 29.6569 331 28V21.5ZM334 19.5C332.895 19.5 332 20.3954 332 21.5V28C332 29.1046 332.895 30 334 30H352C353.105 30 354 29.1046 354 28V21.5C354 20.3954 353.105 19.5 352 19.5H334Z" fill="white"/>
<path d="M356 27.042C356.883 26.6562 357.5 25.7751 357.5 24.75C357.5 23.7248 356.883 22.8438 356 22.458V27.042Z" fill="white"/>
</g>
<defs>
<clipPath id="clip0">
<rect width="19" height="8.5" fill="white" transform="translate(333 20.5)"/>
</clipPath>
</defs>
</svg>
