<svg width="24" height="24" viewBox="0 0 24 24" fill="none" xmlns="http://www.w3.org/2000/svg">
<g opacity="0.7">
<path d="M19.071 4.92893C22.9763 8.83417 22.9763 15.1658 19.071 19.071C15.1658 22.9763 8.83413 22.9763 4.92893 19.071C1.02369 15.1658 1.02369 8.83413 4.92893 4.92893C8.83417 1.02369 15.1658 1.02369 19.071 4.92893" stroke="white" stroke-width="1.5" stroke-linecap="round" stroke-linejoin="round"/>
<path d="M11.8989 9.644V15.72H11.8969C10.6459 15.72 9.27088 14.96 8.29588 13.56C6.83188 11.508 6.43188 9.957 6.43188 9.645M16.6579 15.72C16.6579 15.72 16.2159 14.788 15.3189 13.763C14.7209 13.062 13.8789 12.683 13.1129 12.683C13.8789 12.683 14.7209 12.303 15.3189 11.603C16.2159 10.577 16.6579 9.645 16.6579 9.645M13.1129 12.684H11.8969" stroke="white" stroke-width="1.5" stroke-linecap="round" stroke-linejoin="round"/>
</g>
</svg>
